<svg id="Ebene_1" data-name="Ebene 1" xmlns="http://www.w3.org/2000/svg" viewBox="0 0 368.63 108.58"><defs><style>.cls-1{fill:#509bd5;}.cls-2{fill:#1f3d8a;stroke:#fff;stroke-miterlimit:10;}</style></defs><path class="cls-1" d="M53.46,45c-.9-6.22-3.2-11.13-6.93-14.77Q39.21,23.1,27.7,23.11,15,23.11,7.52,31.5T0,54.45Q0,69.12,7.44,77.51t20.26,8.4q13.48,0,21.36-9.39L40.37,67.6A15.09,15.09,0,0,1,27.7,73.81,13.62,13.62,0,0,1,18,70a14.72,14.72,0,0,1-4.38-10.22H53.4c0-.15,0-.3.06-.45a72.68,72.68,0,0,0,.41-8A43.89,43.89,0,0,0,53.46,45ZM13.74,48.35c.3-4.46,1.74-7.77,4.26-9.93a14.57,14.57,0,0,1,9.7-3.22,11.91,11.91,0,0,1,8.56,3.34c2.36,2.22,3.68,5.5,4,9.81Z" transform="translate(0 0.5)"/><path class="cls-1" d="M93.89,59q0,13.73-12.09,13.73-11.26,0-11.27-14V24.53H56.8V61.27q0,12.78,6,18.72t15.37,5.92q10.09,0,15.73-7.16V84.5h13.73v-60H93.89Z" transform="translate(0 0.5)"/><path class="cls-1" d="M152.27,27.56l-.2.22,0,0,0,.05-.32.35a31.93,31.93,0,0,0-5.47,8.91c-.08.2-.16.38-.23.58a17.91,17.91,0,0,0-6.3-1.1,10.85,10.85,0,0,0-8,3.28c-2.19,2.2-3.28,5.87-3.28,11V84.5H114.67v-60H128.4v6.22q3.61-7.62,12.32-7.63c4.23,0,7.16,1,11.15,4.11C152,27.33,152.14,27.45,152.27,27.56Z" transform="translate(0 0.5)"/><path class="cls-1" d="M195.7,31.5c-5-5.59-11.69-8.39-20.14-8.39-7,0-12.74,1.92-17.31,5.7a21.32,21.32,0,0,0-2.43,2.33c-.11.13-.23.23-.33.36a26.59,26.59,0,0,0-4.64,7.56,29.26,29.26,0,0,0-1.47,4.47,44.06,44.06,0,0,0-1.28,11c0,9.78,2.49,17.46,7.39,23s11.63,8.34,20.07,8.34,15.27-2.79,20.2-8.34,7.39-13.23,7.39-23S200.66,37.1,195.7,31.5ZM185.73,68a12.14,12.14,0,0,1-10.17,4.81,11.94,11.94,0,0,1-10-4.88c-2.46-3.24-3.69-7.67-3.69-13.32s1.25-10.1,3.77-13.43a11.82,11.82,0,0,1,9.95-5,12,12,0,0,1,10.17,4.93q3.69,4.92,3.68,13.49T185.73,68Z" transform="translate(0 0.5)"/><path class="cls-2" d="M270.52,16.31a7.74,7.74,0,0,0,5.75-2.4,8,8,0,0,0,2.34-5.81,7.82,7.82,0,0,0-2.34-5.75A7.81,7.81,0,0,0,270.52,0a8,8,0,0,0-5.81,2.35A7.69,7.69,0,0,0,262.3,8.1a7.91,7.91,0,0,0,2.41,5.81A7.92,7.92,0,0,0,270.52,16.31Z" transform="translate(0 0.5)"/><polygon class="cls-1" points="368.63 25.03 336.94 107.77 322.74 107.77 332.01 84.06 314.06 37 323.33 25.03 339.06 67.28 354.78 25.03 368.63 25.03"/><path class="cls-1" d="M317,3.75V15a22.69,22.69,0,0,0-8.56-2c-3,0-4.58,1.58-4.58,4.7V84.5H290.15V15.13q0-14.21,14.2-14.2A27.4,27.4,0,0,1,317,3.75Z" transform="translate(0 0.5)"/><path class="cls-2" d="M323.33,24.52l-9.27,12-36.74,0v48H263.59V54.57c0-7.75-1.31-14.42-3.86-19.85A30.46,30.46,0,0,0,256,28.77a25.27,25.27,0,0,0-4.15-4.18s0-.05-.09-.07Z" transform="translate(0 0.5)"/><path class="cls-1" d="M255.91,36.52a26.44,26.44,0,0,0-3.17-5.15,22,22,0,0,0-3-3.08c-.15-.14-.32-.28-.49-.42a20.32,20.32,0,0,0-5.93-3.35,25,25,0,0,0-8.6-1.41q-8.79,0-13.72,6V24.52H207.25v83.56L221,101.75V79.68q4.92,6.22,13.62,6.23a22,22,0,0,0,14.63-5,4.06,4.06,0,0,0,.49-.44,6.9,6.9,0,0,0,.69-.62,20.43,20.43,0,0,0,2.14-2.3q6.82-8.39,6.81-23Q259.37,43.83,255.91,36.52ZM242.23,68.06a11.14,11.14,0,0,1-9.63,4.7A13.37,13.37,0,0,1,221,66.89V42q4-5.86,11.61-5.87a10.88,10.88,0,0,1,9.63,5q3.42,5.06,3.41,13.37C245.64,60.44,244.51,64.93,242.23,68.06Z" transform="translate(0 0.5)"/></svg>