<svg width="215" height="919" viewBox="0 0 215 919" fill="none" xmlns="http://www.w3.org/2000/svg">
<path d="M156.561 783.176L155.873 781.298L154.561 781.778V783.176H156.561ZM156.561 868.957H154.561V870.362L155.882 870.838L156.561 868.957ZM209.998 888.223H211.998V886.818L210.676 886.341L209.998 888.223ZM209.998 916.066L209.285 917.935L211.998 918.971V916.066H209.998ZM5.24804 837.879H3.24804V839.256L4.53456 839.747L5.24804 837.879ZM5.24804 814.254L4.53344 812.386L3.24804 812.878V814.254H5.24804ZM209.998 735.926H211.998V733.019L209.283 734.058L209.998 735.926ZM209.998 763.629L210.685 765.507L211.998 765.027V763.629H209.998ZM134.342 860.801L133.66 862.681L136.342 863.654V860.801H134.342ZM134.342 791.191H136.342V788.335L133.657 789.312L134.342 791.191ZM38.5762 826.066L37.8918 824.187L32.721 826.07L37.8942 827.947L38.5762 826.066ZM154.561 783.176V868.957H158.561V783.176H154.561ZM155.882 870.838L209.32 890.104L210.676 886.341L157.239 867.076L155.882 870.838ZM207.998 888.223V916.066H211.998V888.223H207.998ZM210.712 914.198L5.96153 836.011L4.53456 839.747L209.285 917.935L210.712 914.198ZM7.24804 837.879V814.254H3.24804V837.879H7.24804ZM5.96265 816.122L210.713 737.794L209.283 734.058L4.53344 812.386L5.96265 816.122ZM207.998 735.926V763.629H211.998V735.926H207.998ZM209.311 761.751L155.873 781.298L157.248 785.054L210.685 765.507L209.311 761.751ZM136.342 860.801V791.191H132.342V860.801H136.342ZM133.657 789.312L37.8918 824.187L39.2605 827.946L135.026 793.071L133.657 789.312ZM37.8942 827.947L133.66 862.681L135.024 858.921L39.2581 824.186L37.8942 827.947ZM209.998 708.363V710.363H211.998V708.363H209.998ZM5.24804 708.363H3.24804V710.363H5.24804V708.363ZM19.0293 591.363L20.5732 592.635L20.5784 592.628L19.0293 591.363ZM85.2637 582.645L86.4571 581.04L86.4473 581.032L85.2637 582.645ZM102.279 604.863L100.442 605.653L102.68 610.857L104.205 605.402L102.279 604.863ZM119.998 578.707L121.179 580.322L121.188 580.314L121.198 580.307L119.998 578.707ZM114.232 681.363H112.232V683.363H114.232V681.363ZM187.92 681.363V683.363H189.92V681.363H187.92ZM178.217 607.113L179.706 605.779L179.705 605.777L178.217 607.113ZM92.5762 681.363V683.363H94.5762V681.363H92.5762ZM83.7168 612.316L82.177 613.593L82.1854 613.603L83.7168 612.316ZM35.2012 611.473L36.7738 612.708L36.7793 612.701L36.7847 612.694L35.2012 611.473ZM27.4668 681.363H25.4668V683.363H27.4668V681.363ZM209.998 706.363H5.24804V710.363H209.998V706.363ZM7.24804 708.363V641.426H3.24804V708.363H7.24804ZM7.24804 641.426C7.24804 619.434 11.8026 603.285 20.5732 592.635L17.4854 590.092C7.88102 601.754 3.24804 618.981 3.24804 641.426H7.24804ZM20.5784 592.628C29.2965 581.953 42.2536 576.488 59.8105 576.488V572.488C41.3674 572.488 27.137 578.274 17.4802 590.098L20.5784 592.628ZM59.8105 576.488C68.9658 576.488 77.0317 579.082 84.0801 584.257L86.4473 581.032C78.6832 575.332 69.7803 572.488 59.8105 572.488V576.488ZM84.0703 584.249C91.0674 589.452 96.5328 596.562 100.442 605.653L104.117 604.073C99.9633 594.414 94.085 586.712 86.4571 581.04L84.0703 584.249ZM104.205 605.402C107.187 594.742 112.846 586.414 121.179 580.322L118.818 577.093C109.713 583.75 103.56 592.859 100.353 604.325L104.205 605.402ZM121.198 580.307C129.438 574.127 139.317 571.004 150.936 571.004V567.004C138.554 567.004 127.808 570.349 118.798 577.107L121.198 580.307ZM150.936 571.004C168.836 571.004 182.689 576.78 192.748 588.186L195.748 585.54C184.807 573.134 169.785 567.004 150.936 567.004V571.004ZM192.748 588.186C202.823 599.611 207.998 615.904 207.998 637.348H211.998C211.998 615.292 206.673 597.928 195.748 585.54L192.748 588.186ZM207.998 637.348V708.363H211.998V637.348H207.998ZM114.232 683.363H187.92V679.363H114.232V683.363ZM189.92 681.363V636.785H185.92V681.363H189.92ZM189.92 636.785C189.92 623.88 186.592 613.462 179.706 605.779L176.727 608.448C182.78 615.202 185.92 624.566 185.92 636.785H189.92ZM179.705 605.777C172.7 597.972 163.12 594.145 151.217 594.145V598.145C162.189 598.145 170.609 601.63 176.728 608.449L179.705 605.777ZM151.217 594.145C138.535 594.145 128.669 597.6 122.006 604.845C115.373 612.059 112.232 622.688 112.232 636.363H116.232C116.232 623.226 119.256 613.745 124.951 607.553C130.616 601.392 139.242 598.145 151.217 598.145V594.145ZM112.232 636.363V681.363H116.232V636.363H112.232ZM94.5762 681.363V640.582H90.5762V681.363H94.5762ZM94.5762 640.582C94.5762 628.436 91.5351 618.514 85.2482 611.03L82.1854 613.603C87.711 620.181 90.5762 629.103 90.5762 640.582H94.5762ZM85.2565 611.04C78.9315 603.41 70.3267 599.629 59.6699 599.629V603.629C69.2631 603.629 76.6895 606.973 82.177 613.593L85.2565 611.04ZM59.6699 599.629C48.0375 599.629 39.1834 603.036 33.6176 610.251L36.7847 612.694C41.3439 606.784 48.8024 603.629 59.6699 603.629V599.629ZM33.6285 610.237C28.0718 617.309 25.4668 627.824 25.4668 641.426H29.4668C29.4668 628.215 32.018 618.761 36.7738 612.708L33.6285 610.237ZM25.4668 641.426V681.363H29.4668V641.426H25.4668ZM27.4668 683.363H92.5762V679.363H27.4668V683.363ZM166.826 381.551L167.651 379.729L167.647 379.727L166.826 381.551ZM200.998 496.441L202.683 497.518L202.689 497.509L200.998 496.441ZM167.107 525.551L167.951 527.364L167.958 527.361L167.965 527.358L167.107 525.551ZM116.061 536.098V538.098H116.07L116.08 538.098L116.061 536.098ZM14.5293 496.863L16.2145 495.786L16.2125 495.783L14.5293 496.863ZM14.3887 410.52L16.0739 411.597L16.0786 411.589L16.0832 411.582L14.3887 410.52ZM48.8418 381.551L49.6583 383.377L49.6625 383.375L48.8418 381.551ZM45.1855 412.91L46.3837 414.512L46.3892 414.507L45.1855 412.91ZM45.1855 494.191L43.98 495.787L43.9818 495.789L45.1855 494.191ZM99.1855 509.238L99.1611 511.238L99.1733 511.238H99.1855V509.238ZM169.779 494.473L170.958 496.089L170.964 496.084L170.97 496.079L169.779 494.473ZM170.904 413.051L172.11 411.455L172.104 411.451L170.904 413.051ZM116.201 398.285L116.225 396.285L116.213 396.285H116.201V398.285ZM114.232 373.426C134.073 373.426 151.314 376.763 166.005 383.375L167.647 379.727C152.339 372.838 134.517 369.426 114.232 369.426V373.426ZM166.001 383.373C180.596 389.982 191.668 399.302 199.311 411.312L202.685 409.165C194.578 396.425 182.869 386.62 167.651 379.729L166.001 383.373ZM199.311 411.312C206.957 423.327 210.811 437.382 210.811 453.551H214.811C214.811 436.719 210.789 421.899 202.685 409.165L199.311 411.312ZM210.811 453.551C210.811 469.334 206.961 483.254 199.307 495.373L202.689 497.509C210.785 484.691 214.811 470.017 214.811 453.551H210.811ZM199.313 495.364C191.565 507.488 180.569 516.951 166.25 523.744L167.965 527.358C182.896 520.275 194.494 510.333 202.683 497.518L199.313 495.364ZM166.264 523.737C151.848 530.44 135.122 533.913 116.041 534.098L116.08 538.098C135.624 537.908 152.929 534.349 167.951 527.364L166.264 523.737ZM116.061 534.098H101.295V538.098H116.061V534.098ZM101.295 534.098C81.8395 534.098 64.7391 530.717 49.9489 524.011L48.2971 527.654C63.6945 534.635 81.3754 538.098 101.295 538.098V534.098ZM49.9489 524.011C35.1639 517.307 23.9505 507.891 16.2145 495.786L12.8441 497.94C21.0456 510.773 32.8946 520.67 48.2971 527.654L49.9489 524.011ZM16.2125 495.783C8.37348 483.569 4.43554 469.606 4.43554 453.832H0.435543C0.435543 470.308 4.56011 485.033 12.8461 497.944L16.2125 495.783ZM4.43554 453.832C4.43554 437.765 8.33265 423.709 16.0739 411.597L12.7034 409.443C4.50718 422.267 0.435543 437.087 0.435543 453.832H4.43554ZM16.0832 411.582C23.7238 399.393 34.8832 389.984 49.6583 383.377L48.0253 379.725C32.6129 386.618 20.8035 396.521 12.6941 409.457L16.0832 411.582ZM49.6625 383.375C64.3554 376.763 81.5498 373.426 101.295 373.426V369.426C81.1025 369.426 63.3282 372.839 48.0211 379.727L49.6625 383.375ZM101.295 373.426H114.232V369.426H101.295V373.426ZM101.014 396.285C76.5042 396.285 57.4009 401.2 43.9818 411.313L46.3892 414.507C58.8451 405.12 76.9606 400.285 101.014 400.285V396.285ZM43.9874 411.309C30.4078 421.469 23.6387 435.727 23.6387 453.832H27.6387C27.6387 436.875 33.9007 423.851 46.3837 414.512L43.9874 411.309ZM23.6387 453.832C23.6387 471.489 30.4228 485.546 43.98 495.787L46.391 492.596C33.8858 483.149 27.6387 470.3 27.6387 453.832H23.6387ZM43.9818 495.789C57.3766 505.883 75.8473 510.954 99.1611 511.238L99.2099 507.238C76.3988 506.96 58.8695 502 46.3892 492.594L43.9818 495.789ZM99.1855 511.238H114.232V507.238H99.1855V511.238ZM114.232 511.238C138.019 511.238 157.001 506.265 170.958 496.089L168.601 492.857C155.558 502.367 137.508 507.238 114.232 507.238V511.238ZM170.97 496.079C184.908 485.748 191.889 471.499 191.889 453.551H187.889C187.889 470.29 181.463 483.323 168.588 492.866L170.97 496.079ZM191.889 453.551C191.889 435.558 185.321 421.437 172.11 411.455L169.699 414.647C181.8 423.79 187.889 436.669 187.889 453.551H191.889ZM172.104 411.451C158.885 401.536 140.171 396.569 116.225 396.285L116.177 400.285C139.669 400.564 157.424 405.44 169.704 414.651L172.104 411.451ZM116.201 396.285H101.014V400.285H116.201V396.285ZM5.24804 186.785V184.785H3.24804V186.785H5.24804ZM144.467 186.785L144.476 184.785H144.467V186.785ZM191.857 205.066L190.454 206.492L190.46 206.497L191.857 205.066ZM212.529 254.004L214.528 253.926L214.526 253.892L214.524 253.859L212.529 254.004ZM212.811 261.176H214.811V261.137L214.809 261.097L212.811 261.176ZM144.748 335.004V337.004H144.757L144.766 337.004L144.748 335.004ZM5.24804 335.004H3.24804V337.004H5.24804V335.004ZM5.24804 308.285V306.285H3.24804V308.285H5.24804ZM178.498 296.051L179.904 297.473L179.912 297.465L178.498 296.051ZM178.498 226.16L177.084 227.574L177.092 227.583L178.498 226.16ZM5.24804 213.926H3.24804V215.926H5.24804V213.926ZM5.24804 188.785H144.467V184.785H5.24804V188.785ZM144.457 188.785C163.316 188.877 178.591 194.809 190.454 206.491L193.261 203.641C180.562 191.136 164.242 184.881 144.476 184.785L144.457 188.785ZM190.46 206.497C202.323 218.089 209.062 233.907 210.535 254.149L214.524 253.859C212.996 232.851 205.954 216.044 193.255 203.636L190.46 206.497ZM210.531 254.082L210.812 261.254L214.809 261.097L214.528 253.926L210.531 254.082ZM210.811 261.176C210.811 283.212 204.872 300.549 193.19 313.409L196.15 316.099C208.655 302.334 214.811 283.952 214.811 261.176H210.811ZM193.19 313.409C181.538 326.235 165.469 332.82 144.73 333.004L144.766 337.004C166.403 336.812 183.615 329.898 196.15 316.099L193.19 313.409ZM144.748 333.004H5.24804V337.004H144.748V333.004ZM7.24804 335.004V308.285H3.24804V335.004H7.24804ZM5.24804 310.285H143.904V306.285H5.24804V310.285ZM143.904 310.285C159.091 310.285 171.184 306.094 179.904 297.473L177.092 294.629C169.312 302.32 158.343 306.285 143.904 306.285V310.285ZM179.912 297.465C188.549 288.828 192.732 276.63 192.732 261.176H188.732C188.732 275.909 184.76 286.961 177.084 294.637L179.912 297.465ZM192.732 261.176C192.732 245.544 188.554 233.288 179.904 224.738L177.092 227.583C184.755 235.157 188.732 246.245 188.732 261.176H192.732ZM179.912 224.746C171.282 216.116 159.23 211.926 144.045 211.926V215.926C158.485 215.926 169.401 219.892 177.084 227.574L179.912 224.746ZM144.045 211.926H5.24804V215.926H144.045V211.926ZM7.24804 213.926V186.785H3.24804V213.926H7.24804ZM27.4668 2.70709H29.4668V0.707086H27.4668V2.70709ZM27.4668 68.5196H25.4668V70.5196H27.4668V68.5196ZM209.998 68.5196H211.998V66.5196H209.998V68.5196ZM209.998 95.379V97.379H211.998V95.379H209.998ZM27.4668 95.379V93.379H25.4668V95.379H27.4668ZM27.4668 161.051V163.051H29.4668V161.051H27.4668ZM5.24804 161.051H3.24804V163.051H5.24804V161.051ZM5.24804 2.70709V0.707086H3.24804V2.70709H5.24804ZM25.4668 2.70709V68.5196H29.4668V2.70709H25.4668ZM27.4668 70.5196H209.998V66.5196H27.4668V70.5196ZM207.998 68.5196V95.379H211.998V68.5196H207.998ZM209.998 93.379H27.4668V97.379H209.998V93.379ZM25.4668 95.379L25.4668 161.051H29.4668L29.4668 95.379H25.4668ZM27.4668 159.051H5.24804V163.051H27.4668V159.051ZM7.24804 161.051L7.24804 2.70709H3.24804L3.24804 161.051H7.24804ZM5.24804 4.70709H27.4668V0.707086H5.24804V4.70709Z" fill="#FF0000"/>
</svg>
