<svg width="919" height="216" viewBox="0 0 919 216" fill="none" xmlns="http://www.w3.org/2000/svg">
<path d="M136.326 157.066L138.204 156.379L137.724 155.066H136.326V157.066ZM50.5449 157.066V155.066H49.14L48.6635 156.388L50.5449 157.066ZM31.2793 210.504V212.504H32.6843L33.1608 211.182L31.2793 210.504ZM3.43555 210.504L1.56714 209.79L0.530948 212.504H3.43555V210.504ZM81.623 5.7539V3.7539H80.2459L79.7546 5.04042L81.623 5.7539ZM105.248 5.7539L107.116 5.0393L106.624 3.7539H105.248V5.7539ZM183.576 210.504V212.504H186.483L185.444 209.789L183.576 210.504ZM155.873 210.504L153.995 211.191L154.475 212.504H155.873V210.504ZM58.7012 134.848L56.821 134.166L55.8483 136.848H58.7012V134.848ZM128.311 134.848V136.848H131.167L130.19 134.163L128.311 134.848ZM93.4355 39.082L95.3148 38.3977L93.4317 33.2268L91.5554 38.4001L93.4355 39.082ZM136.326 155.066H50.5449V159.066H136.326V155.066ZM48.6635 156.388L29.3978 209.826L33.1608 211.182L52.4264 157.745L48.6635 156.388ZM31.2793 208.504H3.43555V212.504H31.2793V208.504ZM5.30395 211.217L83.4914 6.46739L79.7546 5.04042L1.56714 209.79L5.30395 211.217ZM81.623 7.7539H105.248V3.7539H81.623V7.7539ZM103.38 6.46851L181.708 211.218L185.444 209.789L107.116 5.0393L103.38 6.46851ZM183.576 208.504H155.873V212.504H183.576V208.504ZM157.751 209.817L138.204 156.379L134.448 157.753L153.995 211.191L157.751 209.817ZM58.7012 136.848H128.311V132.848H58.7012V136.848ZM130.19 134.163L95.3148 38.3977L91.5563 39.7664L126.431 135.532L130.19 134.163ZM91.5554 38.4001L56.821 134.166L60.5813 135.53L95.3157 39.764L91.5554 38.4001ZM211.139 210.504H209.139V212.504H211.139V210.504ZM211.139 5.7539V3.7539H209.139V5.7539H211.139ZM328.139 19.5352L326.867 21.079L326.874 21.0842L328.139 19.5352ZM336.857 85.7695L338.462 86.963L338.47 86.9531L336.857 85.7695ZM314.639 102.785L313.849 100.948L308.645 103.186L314.1 104.711L314.639 102.785ZM340.795 120.504L339.18 121.684L339.188 121.694L339.195 121.704L340.795 120.504ZM238.139 114.738V112.738H236.139V114.738H238.139ZM238.139 188.426H236.139V190.426H238.139V188.426ZM312.389 178.723L313.723 180.212L313.724 180.211L312.389 178.723ZM238.139 93.082H236.139V95.082H238.139V93.082ZM307.186 84.2226L305.909 82.6829L305.899 82.6912L307.186 84.2226ZM308.029 35.707L306.794 37.2797L306.801 37.2852L306.808 37.2906L308.029 35.707ZM238.139 27.9727V25.9727H236.139V27.9727H238.139ZM213.139 210.504V5.7539H209.139V210.504H213.139ZM211.139 7.7539H278.076V3.7539H211.139V7.7539ZM278.076 7.7539C300.068 7.7539 316.217 12.3084 326.867 21.079L329.41 17.9913C317.748 8.38688 300.521 3.7539 278.076 3.7539V7.7539ZM326.874 21.0842C337.549 29.8024 343.014 42.7595 343.014 60.3164H347.014C347.014 41.8733 341.228 27.6429 329.404 17.9861L326.874 21.0842ZM343.014 60.3164C343.014 69.4717 340.42 77.5375 335.245 84.5859L338.47 86.9531C344.17 79.189 347.014 70.2861 347.014 60.3164H343.014ZM335.252 84.5761C330.049 91.5732 322.94 97.0386 313.849 100.948L315.429 104.622C325.088 100.469 332.79 94.5908 338.462 86.9629L335.252 84.5761ZM314.1 104.711C324.76 107.692 333.088 113.352 339.18 121.684L342.409 119.323C335.752 110.219 326.642 104.065 315.177 100.859L314.1 104.711ZM339.195 121.704C345.375 129.944 348.498 139.823 348.498 151.441H352.498C352.498 139.06 349.153 128.314 342.395 119.304L339.195 121.704ZM348.498 151.441C348.498 169.342 342.722 183.195 331.316 193.254L333.962 196.254C346.368 185.313 352.498 170.291 352.498 151.441H348.498ZM331.316 193.254C319.891 203.329 303.598 208.504 282.154 208.504V212.504C304.21 212.504 321.574 207.179 333.962 196.254L331.316 193.254ZM282.154 208.504H211.139V212.504H282.154V208.504ZM236.139 114.738V188.426H240.139V114.738H236.139ZM238.139 190.426H282.717V186.426H238.139V190.426ZM282.717 190.426C295.622 190.426 306.04 187.097 313.723 180.212L311.054 177.233C304.3 183.285 294.936 186.426 282.717 186.426V190.426ZM313.724 180.211C321.53 173.206 325.357 163.626 325.357 151.723H321.357C321.357 162.695 317.872 171.114 311.053 177.234L313.724 180.211ZM325.357 151.723C325.357 139.041 321.902 129.175 314.656 122.512C307.443 115.879 296.814 112.738 283.139 112.738V116.738C296.276 116.738 305.756 119.762 311.949 125.457C318.11 131.122 321.357 139.748 321.357 151.723H325.357ZM283.139 112.738H238.139V116.738H283.139V112.738ZM238.139 95.082H278.92V91.082H238.139V95.082ZM278.92 95.082C291.066 95.082 300.987 92.041 308.472 85.7541L305.899 82.6912C299.321 88.2168 290.399 91.082 278.92 91.082V95.082ZM308.462 85.7624C316.092 79.4374 319.873 70.8326 319.873 60.1758H315.873C315.873 69.769 312.529 77.1954 305.909 82.6829L308.462 85.7624ZM319.873 60.1758C319.873 48.5433 316.466 39.6893 309.251 34.1235L306.808 37.2906C312.718 41.8498 315.873 49.3082 315.873 60.1758H319.873ZM309.265 34.1344C302.193 28.5777 291.678 25.9727 278.076 25.9727V29.9727C291.287 29.9727 300.741 32.5239 306.794 37.2797L309.265 34.1344ZM278.076 25.9727H238.139V29.9727H278.076V25.9727ZM236.139 27.9727V93.082H240.139V27.9727H236.139ZM537.951 167.332L539.773 168.157L539.775 168.153L537.951 167.332ZM423.061 201.504L421.983 203.189L421.993 203.195L423.061 201.504ZM393.951 167.613L392.138 168.457L392.141 168.463L392.144 168.47L393.951 167.613ZM383.404 116.566H381.404V116.576L381.404 116.586L383.404 116.566ZM422.639 15.0352L423.716 16.7204L423.719 16.7183L422.639 15.0352ZM508.982 14.8945L507.905 16.5798L507.913 16.5845L507.92 16.5891L508.982 14.8945ZM537.951 49.3476L536.125 50.1641L536.127 50.1684L537.951 49.3476ZM506.592 45.6914L504.99 46.8896L504.995 46.8951L506.592 45.6914ZM425.311 45.6914L423.715 44.4859L423.713 44.4877L425.311 45.6914ZM410.264 99.6914L408.264 99.667L408.264 99.6792V99.6914H410.264ZM425.029 170.285L423.413 171.463L423.418 171.47L423.423 171.476L425.029 170.285ZM506.451 171.41L508.047 172.616L508.051 172.61L506.451 171.41ZM521.217 116.707L523.217 116.731L523.217 116.719V116.707H521.217ZM546.076 114.738C546.076 134.579 542.739 151.82 536.127 166.511L539.775 168.153C546.664 152.845 550.076 135.023 550.076 114.738H546.076ZM536.129 166.507C529.52 181.102 520.2 192.174 508.19 199.817L510.337 203.191C523.077 195.084 532.882 183.375 539.773 168.157L536.129 166.507ZM508.19 199.817C496.175 207.463 482.12 211.316 465.951 211.316V215.316C482.783 215.316 497.603 211.295 510.337 203.191L508.19 199.817ZM465.951 211.316C450.168 211.316 436.248 207.467 424.129 199.813L421.993 203.195C434.811 211.29 449.485 215.316 465.951 215.316V211.316ZM424.138 199.819C412.014 192.071 402.55 181.075 395.758 166.756L392.144 168.47C399.227 183.401 409.169 194.999 421.983 203.189L424.138 199.819ZM395.765 166.77C389.062 152.354 385.589 135.628 385.404 116.547L381.404 116.586C381.594 136.13 385.153 153.435 392.138 168.457L395.765 166.77ZM385.404 116.566V101.801H381.404V116.566H385.404ZM385.404 101.801C385.404 82.3453 388.785 65.245 395.491 50.4548L391.848 48.803C384.867 64.2003 381.404 81.8812 381.404 101.801H385.404ZM395.491 50.4548C402.195 35.6698 411.611 24.4563 423.716 16.7204L421.562 13.3499C408.729 21.5515 398.832 33.4005 391.848 48.803L395.491 50.4548ZM423.719 16.7183C435.933 8.87934 449.896 4.9414 465.67 4.9414V0.941403C449.194 0.941403 434.469 5.06597 421.558 13.352L423.719 16.7183ZM465.67 4.9414C481.737 4.9414 495.793 8.83851 507.905 16.5798L510.059 13.2093C497.235 5.01304 482.415 0.941403 465.67 0.941403V4.9414ZM507.92 16.5891C520.109 24.2297 529.518 35.389 536.125 50.1641L539.777 48.5312C532.884 33.1188 522.981 21.3094 510.045 13.2L507.92 16.5891ZM536.127 50.1684C542.739 64.8612 546.076 82.0557 546.076 101.801H550.076C550.076 81.6084 546.663 63.834 539.775 48.5269L536.127 50.1684ZM546.076 101.801V114.738H550.076V101.801H546.076ZM523.217 101.52C523.217 77.0101 518.302 57.9068 508.189 44.4877L504.995 46.8951C514.382 59.351 519.217 77.4665 519.217 101.52H523.217ZM508.193 44.4932C498.033 30.9137 483.775 24.1445 465.67 24.1445V28.1445C482.627 28.1445 495.651 34.4066 504.99 46.8896L508.193 44.4932ZM465.67 24.1445C448.013 24.1445 433.956 30.9286 423.715 44.4859L426.906 46.8969C436.353 34.3917 449.202 28.1445 465.67 28.1445V24.1445ZM423.713 44.4877C413.619 57.8824 408.548 76.3532 408.264 99.667L412.263 99.7158C412.542 76.9046 417.502 59.3754 426.908 46.8951L423.713 44.4877ZM408.264 99.6914V114.738H412.264V99.6914H408.264ZM408.264 114.738C408.264 138.525 413.237 157.507 423.413 171.463L426.645 169.107C417.135 156.063 412.264 138.014 412.264 114.738H408.264ZM423.423 171.476C433.754 185.414 448.003 192.395 465.951 192.395V188.395C449.212 188.395 436.179 181.968 426.636 169.094L423.423 171.476ZM465.951 192.395C483.944 192.395 498.065 185.827 508.047 172.616L504.855 170.204C495.712 182.306 482.833 188.395 465.951 188.395V192.395ZM508.051 172.61C517.966 159.391 522.933 140.677 523.217 116.731L519.217 116.683C518.938 140.175 514.062 157.929 504.851 170.21L508.051 172.61ZM523.217 116.707V101.52H519.217V116.707H523.217ZM732.717 5.7539H734.717V3.7539H732.717V5.7539ZM732.717 144.973L734.717 144.982V144.973H732.717ZM714.436 192.363L713.01 190.96L713.005 190.966L714.436 192.363ZM665.498 213.035L665.576 215.034L665.61 215.032L665.643 215.03L665.498 213.035ZM658.326 213.316V215.316H658.365L658.405 215.315L658.326 213.316ZM584.498 145.254H582.498V145.263L582.498 145.272L584.498 145.254ZM584.498 5.7539V3.7539H582.498V5.7539H584.498ZM611.217 5.7539H613.217V3.7539H611.217V5.7539ZM623.451 179.004L622.029 180.41L622.037 180.418L623.451 179.004ZM693.342 179.004L691.928 177.59L691.919 177.598L693.342 179.004ZM705.576 5.7539V3.7539H703.576V5.7539H705.576ZM730.717 5.7539V144.973H734.717V5.7539H730.717ZM730.717 144.963C730.625 163.822 724.693 179.097 713.01 190.96L715.861 193.767C728.366 181.067 734.621 164.748 734.717 144.982L730.717 144.963ZM713.005 190.966C701.413 202.829 685.595 209.568 665.353 211.04L665.643 215.03C686.651 213.502 703.458 206.46 715.866 193.761L713.005 190.966ZM665.42 211.037L658.248 211.318L658.405 215.315L665.576 215.034L665.42 211.037ZM658.326 211.316C636.29 211.316 618.953 205.378 606.093 193.695L603.403 196.656C617.168 209.161 635.55 215.316 658.326 215.316V211.316ZM606.093 193.695C593.267 182.044 586.681 165.974 586.498 145.236L582.498 145.272C582.69 166.908 589.604 184.12 603.403 196.656L606.093 193.695ZM586.498 145.254V5.7539H582.498V145.254H586.498ZM584.498 7.7539H611.217V3.7539H584.498V7.7539ZM609.217 5.7539V144.41H613.217V5.7539H609.217ZM609.217 144.41C609.217 159.597 613.407 171.69 622.029 180.41L624.873 177.598C617.182 169.818 613.217 158.849 613.217 144.41H609.217ZM622.037 180.418C630.674 189.055 642.872 193.238 658.326 193.238V189.238C643.593 189.238 632.541 185.266 624.865 177.59L622.037 180.418ZM658.326 193.238C673.958 193.238 686.214 189.06 694.764 180.41L691.919 177.598C684.345 185.261 673.257 189.238 658.326 189.238V193.238ZM694.756 180.418C703.386 171.788 707.576 159.736 707.576 144.551H703.576C703.576 158.991 699.61 169.907 691.928 177.59L694.756 180.418ZM707.576 144.551V5.7539H703.576V144.551H707.576ZM705.576 7.7539H732.717V3.7539H705.576V7.7539ZM916.795 27.9727V29.9727H918.795V27.9727H916.795ZM850.982 27.9727V25.9727H848.982V27.9727H850.982ZM850.982 210.504V212.504H852.982V210.504H850.982ZM824.123 210.504H822.123V212.504H824.123V210.504ZM824.123 27.9727H826.123V25.9727H824.123V27.9727ZM758.451 27.9727H756.451V29.9727H758.451V27.9727ZM758.451 5.7539V3.7539H756.451V5.7539H758.451ZM916.795 5.7539H918.795V3.7539H916.795V5.7539ZM916.795 25.9727H850.982V29.9727H916.795V25.9727ZM848.982 27.9727V210.504H852.982V27.9727H848.982ZM850.982 208.504H824.123V212.504H850.982V208.504ZM826.123 210.504V27.9727H822.123V210.504H826.123ZM824.123 25.9727H758.451V29.9727H824.123V25.9727ZM760.451 27.9727V5.7539H756.451V27.9727H760.451ZM758.451 7.7539H916.795V3.7539H758.451V7.7539ZM914.795 5.7539V27.9727H918.795V5.7539H914.795Z" fill="#FF0000"/>
</svg>
