<svg width="1270" height="216" viewBox="0 0 1270 216" fill="none" xmlns="http://www.w3.org/2000/svg">
<path d="M159.873 145.535L161.86 145.767L162.12 143.535H159.873V145.535ZM135.826 195.738L137.142 197.244L137.143 197.243L135.826 195.738ZM24.0293 187.301L22.4962 188.585L22.5003 188.59L24.0293 187.301ZM12.3574 47.8008L10.5502 46.9441L10.5457 46.9537L12.3574 47.8008ZM41.3262 14.6133L42.3758 16.3157L42.385 16.31L41.3262 14.6133ZM136.951 21.2227L135.59 22.6882L135.596 22.6935L136.951 21.2227ZM159.873 71.5664V73.5664H162.084L161.863 71.3665L159.873 71.5664ZM132.732 71.5664L130.753 71.8508L130.999 73.5664H132.732V71.5664ZM117.404 36.1289L116.035 37.5864L116.043 37.5945L117.404 36.1289ZM43.998 44.2852L42.4149 43.0629L42.4093 43.0703L43.998 44.2852ZM116.701 181.113L117.994 182.639L117.995 182.638L116.701 181.113ZM132.732 145.535V143.535H131.019L130.756 145.228L132.732 145.535ZM157.887 145.303C155.4 166.578 147.559 182.814 134.509 194.233L137.143 197.243C151.093 185.037 159.284 167.805 161.86 145.767L157.887 145.303ZM134.51 194.232C121.553 205.558 104.203 211.316 82.248 211.316V215.316C104.918 215.316 123.286 209.356 137.142 197.244L134.51 194.232ZM82.248 211.316C58.6056 211.316 39.7755 202.872 25.5583 186.011L22.5003 188.59C37.5331 206.417 57.5155 215.316 82.248 215.316V211.316ZM25.5623 186.016C11.41 169.125 4.23242 146.42 4.23242 117.691H0.232421C0.232421 147.087 7.58608 170.789 22.4963 188.585L25.5623 186.016ZM4.23242 117.691V98.0039H0.232421V117.691H4.23242ZM4.23242 98.0039C4.23242 79.2093 7.5649 62.7737 14.1692 48.6478L10.5457 46.9537C3.64994 61.7029 0.232421 78.736 0.232421 98.0039H4.23242ZM14.1647 48.6575C20.8585 34.5362 30.2657 23.7821 42.3758 16.3157L40.2765 12.9108C27.4491 20.8195 17.5438 32.1904 10.5502 46.9441L14.1647 48.6575ZM42.385 16.31C54.5002 8.74942 68.562 4.9414 84.6387 4.9414V0.941403C67.9029 0.941403 53.0897 4.91464 40.2673 12.9166L42.385 16.31ZM84.6387 4.9414C105.998 4.9414 122.911 10.9147 135.59 22.6882L138.312 19.7571C124.741 7.15559 106.779 0.941403 84.6387 0.941403V4.9414ZM135.596 22.6935C148.289 34.3894 155.765 50.6778 157.883 71.7663L161.863 71.3665C159.669 49.5175 151.863 32.2434 138.306 19.7518L135.596 22.6935ZM159.873 69.5664H132.732V73.5664H159.873V69.5664ZM134.712 71.282C132.336 54.7463 127.113 42.415 118.765 34.6633L116.043 37.5945C123.445 44.4678 128.441 55.7615 130.753 71.8508L134.712 71.282ZM118.774 34.6715C110.516 26.9114 99.0443 23.1602 84.6387 23.1602V27.1602C98.358 27.1602 108.73 30.7214 116.035 37.5863L118.774 34.6715ZM84.6387 23.1602C66.8198 23.1602 52.6674 29.7835 42.415 43.0629L45.5811 45.5074C55.0162 33.2868 67.9575 27.1602 84.6387 27.1602V23.1602ZM42.4093 43.0703C32.2937 56.2984 27.373 74.9334 27.373 98.707H31.373C31.373 75.4182 36.2024 57.7719 45.5868 45.5001L42.4093 43.0703ZM27.373 98.707V118.535H31.373V98.707H27.373ZM27.373 118.535C27.373 141.014 32.0662 159.136 41.662 172.706L44.9279 170.396C35.9611 157.716 31.373 140.494 31.373 118.535H27.373ZM41.662 172.706C51.3347 186.384 64.9406 193.238 82.248 193.238V189.238C66.1805 189.238 53.8177 182.967 44.9279 170.396L41.662 172.706ZM82.248 193.238C97.5187 193.238 109.535 189.805 117.994 182.639L115.408 179.587C107.93 185.922 96.9774 189.238 82.248 189.238V193.238ZM117.995 182.638C126.591 175.342 132.052 162.918 134.709 145.843L130.756 145.228C128.162 161.902 122.936 173.197 115.407 179.589L117.995 182.638ZM132.732 147.535H159.873V143.535H132.732V147.535ZM344.232 167.332L346.054 168.157L346.056 168.153L344.232 167.332ZM229.342 201.504L228.265 203.189L228.274 203.195L229.342 201.504ZM200.232 167.613L198.419 168.457L198.422 168.463L198.425 168.47L200.232 167.613ZM189.686 116.566H187.686V116.576L187.686 116.586L189.686 116.566ZM228.92 15.0352L229.997 16.7204L230 16.7183L228.92 15.0352ZM315.264 14.8945L314.187 16.5798L314.194 16.5845L314.201 16.5891L315.264 14.8945ZM344.232 49.3476L342.407 50.1641L342.409 50.1684L344.232 49.3476ZM312.873 45.6914L311.272 46.8896L311.276 46.8951L312.873 45.6914ZM231.592 45.6914L229.996 44.4859L229.995 44.4877L231.592 45.6914ZM216.545 99.6914L214.545 99.667L214.545 99.6792V99.6914H216.545ZM231.311 170.285L229.695 171.463L229.699 171.47L229.704 171.476L231.311 170.285ZM312.732 171.41L314.328 172.616L314.332 172.61L312.732 171.41ZM327.498 116.707L329.498 116.731L329.498 116.719V116.707H327.498ZM352.357 114.738C352.357 134.579 349.02 151.82 342.409 166.511L346.056 168.153C352.945 152.845 356.357 135.023 356.357 114.738H352.357ZM342.41 166.507C335.802 181.102 326.481 192.174 314.471 199.817L316.619 203.191C329.359 195.084 339.163 183.375 346.054 168.157L342.41 166.507ZM314.471 199.817C302.456 207.463 288.401 211.316 272.232 211.316V215.316C289.064 215.316 303.884 211.295 316.619 203.191L314.471 199.817ZM272.232 211.316C256.449 211.316 242.529 207.467 230.41 199.813L228.274 203.195C241.092 211.29 255.766 215.316 272.232 215.316V211.316ZM230.419 199.819C218.296 192.071 208.832 181.075 202.039 166.756L198.425 168.47C205.508 183.401 215.45 194.999 228.265 203.189L230.419 199.819ZM202.046 166.77C195.343 152.354 191.871 135.628 191.685 116.547L187.686 116.586C187.875 136.13 191.434 153.435 198.419 168.457L202.046 166.77ZM191.686 116.566V101.801H187.686V116.566H191.686ZM191.686 101.801C191.686 82.3453 195.067 65.245 201.773 50.4548L198.13 48.803C191.148 64.2003 187.686 81.8812 187.686 101.801H191.686ZM201.773 50.4548C208.476 35.6698 217.892 24.4563 229.997 16.7204L227.843 13.3499C215.01 21.5515 205.113 33.4005 198.13 48.803L201.773 50.4548ZM230 16.7183C242.214 8.87934 256.177 4.9414 271.951 4.9414V0.941403C255.475 0.941403 240.75 5.06597 227.84 13.352L230 16.7183ZM271.951 4.9414C288.019 4.9414 302.074 8.83851 314.187 16.5798L316.341 13.2093C303.516 5.01304 288.696 0.941403 271.951 0.941403V4.9414ZM314.201 16.5891C326.39 24.2297 335.799 35.389 342.407 50.1641L346.058 48.5312C339.166 33.1188 329.262 21.3094 316.326 13.2L314.201 16.5891ZM342.409 50.1684C349.02 64.8612 352.357 82.0557 352.357 101.801H356.357C356.357 81.6084 352.944 63.834 346.056 48.5269L342.409 50.1684ZM352.357 101.801V114.738H356.357V101.801H352.357ZM329.498 101.52C329.498 77.0101 324.583 57.9068 314.47 44.4877L311.276 46.8951C320.663 59.351 325.498 77.4665 325.498 101.52H329.498ZM314.474 44.4932C304.314 30.9137 290.056 24.1445 271.951 24.1445V28.1445C288.909 28.1445 301.932 34.4066 311.272 46.8896L314.474 44.4932ZM271.951 24.1445C254.294 24.1445 240.237 30.9286 229.996 44.4859L233.188 46.8969C242.634 34.3917 255.483 28.1445 271.951 28.1445V24.1445ZM229.995 44.4877C219.9 57.8824 214.829 76.3532 214.545 99.667L218.545 99.7158C218.823 76.9046 223.784 59.3754 233.189 46.8951L229.995 44.4877ZM214.545 99.6914V114.738H218.545V99.6914H214.545ZM214.545 114.738C214.545 138.525 219.518 157.507 229.695 171.463L232.927 169.107C223.416 156.063 218.545 138.014 218.545 114.738H214.545ZM229.704 171.476C240.036 185.414 254.284 192.395 272.232 192.395V188.395C255.493 188.395 242.46 181.968 232.917 169.094L229.704 171.476ZM272.232 192.395C290.225 192.395 304.346 185.827 314.328 172.616L311.137 170.204C301.993 182.306 289.115 188.395 272.232 188.395V192.395ZM314.332 172.61C324.247 159.391 329.214 140.677 329.498 116.731L325.498 116.683C325.22 140.175 320.343 157.929 311.132 170.21L314.332 172.61ZM329.498 116.707V101.52H325.498V116.707H329.498ZM552.217 210.504V212.504H554.217V210.504H552.217ZM525.076 210.504L523.402 211.598L523.994 212.504H525.076V210.504ZM421.998 52.7226L423.672 51.6288L419.998 46.0045V52.7226H421.998ZM421.998 210.504V212.504H423.998V210.504H421.998ZM394.857 210.504H392.857V212.504H394.857V210.504ZM394.857 5.7539V3.7539H392.857V5.7539H394.857ZM421.998 5.7539L423.673 4.66137L423.081 3.7539H421.998V5.7539ZM525.357 164.238L523.682 165.331L527.357 170.966V164.238H525.357ZM525.357 5.7539V3.7539H523.357V5.7539H525.357ZM552.217 5.7539H554.217V3.7539H552.217V5.7539ZM552.217 208.504H525.076V212.504H552.217V208.504ZM526.75 209.41L423.672 51.6288L420.324 53.8165L523.402 211.598L526.75 209.41ZM419.998 52.7226V210.504H423.998V52.7226H419.998ZM421.998 208.504H394.857V212.504H421.998V208.504ZM396.857 210.504V5.7539H392.857V210.504H396.857ZM394.857 7.7539H421.998V3.7539H394.857V7.7539ZM420.323 6.84644L523.682 165.331L527.033 163.146L423.673 4.66137L420.323 6.84644ZM527.357 164.238V5.7539H523.357V164.238H527.357ZM525.357 7.7539H552.217V3.7539H525.357V7.7539ZM550.217 5.7539V210.504H554.217V5.7539H550.217ZM737.42 27.9727V29.9727H739.42V27.9727H737.42ZM671.607 27.9727V25.9727H669.607V27.9727H671.607ZM671.607 210.504V212.504H673.607V210.504H671.607ZM644.748 210.504H642.748V212.504H644.748V210.504ZM644.748 27.9727H646.748V25.9727H644.748V27.9727ZM579.076 27.9727H577.076V29.9727H579.076V27.9727ZM579.076 5.7539V3.7539H577.076V5.7539H579.076ZM737.42 5.7539H739.42V3.7539H737.42V5.7539ZM737.42 25.9727H671.607V29.9727H737.42V25.9727ZM669.607 27.9727V210.504H673.607V27.9727H669.607ZM671.607 208.504H644.748V212.504H671.607V208.504ZM646.748 210.504V27.9727H642.748V210.504H646.748ZM644.748 25.9727H579.076V29.9727H644.748V25.9727ZM581.076 27.9727V5.7539H577.076V27.9727H581.076ZM579.076 7.7539H737.42V3.7539H579.076V7.7539ZM735.42 5.7539V27.9727H739.42V5.7539H735.42ZM869.607 157.066L871.486 156.379L871.005 155.066H869.607V157.066ZM783.826 157.066V155.066H782.421L781.945 156.388L783.826 157.066ZM764.561 210.504V212.504H765.965L766.442 211.182L764.561 210.504ZM736.717 210.504L734.848 209.79L733.812 212.504H736.717V210.504ZM814.904 5.7539V3.7539H813.527L813.036 5.04042L814.904 5.7539ZM838.529 5.7539L840.397 5.0393L839.905 3.7539H838.529V5.7539ZM916.857 210.504V212.504H919.764L918.725 209.789L916.857 210.504ZM889.154 210.504L887.276 211.191L887.756 212.504H889.154V210.504ZM791.982 134.848L790.102 134.166L789.129 136.848H791.982V134.848ZM861.592 134.848V136.848H864.449L863.471 134.163L861.592 134.848ZM826.717 39.082L828.596 38.3977L826.713 33.2268L824.837 38.4001L826.717 39.082ZM869.607 155.066H783.826V159.066H869.607V155.066ZM781.945 156.388L762.679 209.826L766.442 211.182L785.708 157.745L781.945 156.388ZM764.561 208.504H736.717V212.504H764.561V208.504ZM738.585 211.217L816.773 6.46739L813.036 5.04042L734.848 209.79L738.585 211.217ZM814.904 7.7539H838.529V3.7539H814.904V7.7539ZM836.661 6.46851L914.989 211.218L918.725 209.789L840.397 5.0393L836.661 6.46851ZM916.857 208.504H889.154V212.504H916.857V208.504ZM891.033 209.817L871.486 156.379L867.729 157.753L887.276 211.191L891.033 209.817ZM791.982 136.848H861.592V132.848H791.982V136.848ZM863.471 134.163L828.596 38.3977L824.837 39.7664L859.712 135.532L863.471 134.163ZM824.837 38.4001L790.102 134.166L793.863 135.53L828.597 39.764L824.837 38.4001ZM1093.34 145.535L1095.33 145.767L1095.59 143.535H1093.34V145.535ZM1069.29 195.738L1070.61 197.244L1070.61 197.243L1069.29 195.738ZM957.498 187.301L955.965 188.585L955.969 188.59L957.498 187.301ZM945.826 47.8008L944.019 46.9441L944.014 46.9537L945.826 47.8008ZM974.795 14.6133L975.845 16.3157L975.854 16.31L974.795 14.6133ZM1070.42 21.2227L1069.06 22.6882L1069.06 22.6935L1070.42 21.2227ZM1093.34 71.5664V73.5664H1095.55L1095.33 71.3665L1093.34 71.5664ZM1066.2 71.5664L1064.22 71.8508L1064.47 73.5664H1066.2V71.5664ZM1050.87 36.1289L1049.5 37.5864L1049.51 37.5945L1050.87 36.1289ZM977.467 44.2852L975.884 43.0629L975.878 43.0703L977.467 44.2852ZM1050.17 181.113L1051.46 182.639L1051.46 182.638L1050.17 181.113ZM1066.2 145.535V143.535H1064.49L1064.22 145.228L1066.2 145.535ZM1091.36 145.303C1088.87 166.578 1081.03 182.814 1067.98 194.233L1070.61 197.243C1084.56 185.037 1092.75 167.805 1095.33 145.767L1091.36 145.303ZM1067.98 194.232C1055.02 205.558 1037.67 211.316 1015.72 211.316V215.316C1038.39 215.316 1056.76 209.356 1070.61 197.244L1067.98 194.232ZM1015.72 211.316C992.074 211.316 973.244 202.872 959.027 186.011L955.969 188.59C971.002 206.417 990.984 215.316 1015.72 215.316V211.316ZM959.031 186.016C944.879 169.125 937.701 146.42 937.701 117.691H933.701C933.701 147.087 941.055 170.789 955.965 188.585L959.031 186.016ZM937.701 117.691V98.0039H933.701V117.691H937.701ZM937.701 98.0039C937.701 79.2093 941.034 62.7737 947.638 48.6478L944.014 46.9537C937.119 61.7029 933.701 78.736 933.701 98.0039H937.701ZM947.633 48.6575C954.327 34.5362 963.734 23.7821 975.844 16.3157L973.745 12.9108C960.918 20.8195 951.013 32.1904 944.019 46.9441L947.633 48.6575ZM975.854 16.31C987.969 8.74942 1002.03 4.9414 1018.11 4.9414V0.941403C1001.37 0.941403 986.558 4.91464 973.736 12.9166L975.854 16.31ZM1018.11 4.9414C1039.47 4.9414 1056.38 10.9147 1069.06 22.6882L1071.78 19.7571C1058.21 7.15559 1040.25 0.941403 1018.11 0.941403V4.9414ZM1069.06 22.6935C1081.76 34.3894 1089.23 50.6778 1091.35 71.7663L1095.33 71.3665C1093.14 49.5175 1085.33 32.2434 1071.78 19.7518L1069.06 22.6935ZM1093.34 69.5664H1066.2V73.5664H1093.34V69.5664ZM1068.18 71.282C1065.8 54.7463 1060.58 42.415 1052.23 34.6633L1049.51 37.5945C1056.91 44.4678 1061.91 55.7615 1064.22 71.8508L1068.18 71.282ZM1052.24 34.6715C1043.99 26.9114 1032.51 23.1602 1018.11 23.1602V27.1602C1031.83 27.1602 1042.2 30.7214 1049.5 37.5863L1052.24 34.6715ZM1018.11 23.1602C1000.29 23.1602 986.136 29.7835 975.884 43.0629L979.05 45.5074C988.485 33.2868 1001.43 27.1602 1018.11 27.1602V23.1602ZM975.878 43.0703C965.762 56.2984 960.842 74.9334 960.842 98.707H964.842C964.842 75.4182 969.671 57.7719 979.055 45.5001L975.878 43.0703ZM960.842 98.707V118.535H964.842V98.707H960.842ZM960.842 118.535C960.842 141.014 965.535 159.136 975.131 172.706L978.397 170.396C969.43 157.716 964.842 140.494 964.842 118.535H960.842ZM975.131 172.706C984.803 186.384 998.409 193.238 1015.72 193.238V189.238C999.649 189.238 987.286 182.967 978.397 170.396L975.131 172.706ZM1015.72 193.238C1030.99 193.238 1043 189.805 1051.46 182.639L1048.88 179.587C1041.4 185.922 1030.45 189.238 1015.72 189.238V193.238ZM1051.46 182.638C1060.06 175.342 1065.52 162.918 1068.18 145.843L1064.22 145.228C1061.63 161.902 1056.41 173.197 1048.88 179.589L1051.46 182.638ZM1066.2 147.535H1093.34V143.535H1066.2V147.535ZM1267.58 27.9727V29.9727H1269.58V27.9727H1267.58ZM1201.76 27.9727V25.9727H1199.76V27.9727H1201.76ZM1201.76 210.504V212.504H1203.76V210.504H1201.76ZM1174.9 210.504H1172.9V212.504H1174.9V210.504ZM1174.9 27.9727H1176.9V25.9727H1174.9V27.9727ZM1109.23 27.9727H1107.23V29.9727H1109.23V27.9727ZM1109.23 5.7539V3.7539H1107.23V5.7539H1109.23ZM1267.58 5.7539H1269.58V3.7539H1267.58V5.7539ZM1267.58 25.9727H1201.76V29.9727H1267.58V25.9727ZM1199.76 27.9727V210.504H1203.76V27.9727H1199.76ZM1201.76 208.504H1174.9V212.504H1201.76V208.504ZM1176.9 210.504V27.9727H1172.9V210.504H1176.9ZM1174.9 25.9727H1109.23V29.9727H1174.9V25.9727ZM1111.23 27.9727V5.7539H1107.23V27.9727H1111.23ZM1109.23 7.7539H1267.58V3.7539H1109.23V7.7539ZM1265.58 5.7539V27.9727H1269.58V5.7539H1265.58Z" fill="#FF0000"/>
</svg>
