<svg width="215" height="1271" viewBox="0 0 215 1271" fill="none" xmlns="http://www.w3.org/2000/svg">
<path d="M145.029 1110.63L145.261 1108.64L143.029 1108.38V1110.63H145.029ZM195.232 1134.68L196.738 1133.36L196.738 1133.36L195.232 1134.68ZM186.795 1246.47L188.079 1248.01L188.084 1248L186.795 1246.47ZM47.2949 1258.14L46.4382 1259.95L46.4479 1259.96L47.2949 1258.14ZM14.1074 1229.18L15.8099 1228.13L15.8041 1228.12L14.1074 1229.18ZM20.7168 1133.55L22.1824 1134.91L22.1876 1134.91L20.7168 1133.55ZM71.0605 1110.63H73.0605V1108.42L70.8607 1108.64L71.0605 1110.63ZM71.0605 1137.77L71.345 1139.75L73.0605 1139.5V1137.77H71.0605ZM35.623 1153.1L37.0805 1154.47L37.0886 1154.46L35.623 1153.1ZM43.7793 1226.5L42.557 1228.09L42.5644 1228.09L43.7793 1226.5ZM180.607 1153.8L182.133 1152.51L182.132 1152.51L180.607 1153.8ZM145.029 1137.77H143.029V1139.48L144.722 1139.75L145.029 1137.77ZM144.797 1112.62C166.072 1115.1 182.308 1122.94 193.727 1135.99L196.738 1133.36C184.531 1119.41 167.299 1111.22 145.261 1108.64L144.797 1112.62ZM193.727 1135.99C205.052 1148.95 210.811 1166.3 210.811 1188.25H214.811C214.811 1165.58 208.85 1147.22 196.738 1133.36L193.727 1135.99ZM210.811 1188.25C210.811 1211.9 202.366 1230.73 185.506 1244.94L188.084 1248C205.912 1232.97 214.811 1212.99 214.811 1188.25H210.811ZM185.51 1244.94C168.619 1259.09 145.915 1266.27 117.186 1266.27V1270.27C146.581 1270.27 170.283 1262.92 188.079 1248.01L185.51 1244.94ZM117.186 1266.27H97.498V1270.27H117.186V1266.27ZM97.498 1266.27C78.7034 1266.27 62.2678 1262.94 48.142 1256.33L46.4479 1259.96C61.197 1266.85 78.2301 1270.27 97.498 1270.27V1266.27ZM48.1516 1256.34C34.0303 1249.64 23.2762 1240.24 15.8099 1228.13L12.405 1230.23C20.3136 1243.05 31.6845 1252.96 46.4382 1259.95L48.1516 1256.34ZM15.8041 1228.12C8.24356 1216 4.43554 1201.94 4.43554 1185.86H0.435543C0.435543 1202.6 4.40878 1217.41 12.4107 1230.23L15.8041 1228.12ZM4.43554 1185.86C4.43554 1164.5 10.4089 1147.59 22.1824 1134.91L19.2512 1132.19C6.64973 1145.76 0.435543 1163.72 0.435543 1185.86H4.43554ZM22.1876 1134.91C33.8835 1122.21 50.1719 1114.74 71.2604 1112.62L70.8607 1108.64C49.0116 1110.83 31.7376 1118.64 19.246 1132.2L22.1876 1134.91ZM69.0605 1110.63V1137.77H73.0605V1110.63H69.0605ZM70.7761 1135.79C54.2404 1138.17 41.9092 1143.39 34.1575 1151.74L37.0886 1154.46C43.9619 1147.06 55.2556 1142.06 71.345 1139.75L70.7761 1135.79ZM34.1656 1151.73C26.4055 1159.99 22.6543 1171.46 22.6543 1185.86H26.6543C26.6543 1172.14 30.2155 1161.77 37.0805 1154.47L34.1656 1151.73ZM22.6543 1185.86C22.6543 1203.68 29.2777 1217.83 42.5571 1228.09L45.0015 1224.92C32.7809 1215.49 26.6543 1202.54 26.6543 1185.86H22.6543ZM42.5644 1228.09C55.7925 1238.21 74.4275 1243.13 98.2012 1243.13V1239.13C74.9123 1239.13 57.266 1234.3 44.9942 1224.92L42.5644 1228.09ZM98.2012 1243.13H118.029V1239.13H98.2012V1243.13ZM118.029 1243.13C140.508 1243.13 158.63 1238.44 172.2 1228.84L169.89 1225.57C157.21 1234.54 139.988 1239.13 118.029 1239.13V1243.13ZM172.2 1228.84C185.878 1219.17 192.732 1205.56 192.732 1188.25H188.732C188.732 1204.32 182.462 1216.68 169.89 1225.57L172.2 1228.84ZM192.732 1188.25C192.732 1172.98 189.299 1160.97 182.133 1152.51L179.081 1155.09C185.416 1162.57 188.732 1173.52 188.732 1188.25H192.732ZM182.132 1152.51C174.836 1143.91 162.412 1138.45 145.337 1135.79L144.722 1139.75C161.396 1142.34 172.691 1147.57 179.083 1155.1L182.132 1152.51ZM147.029 1137.77V1110.63H143.029V1137.77H147.029ZM166.826 926.27L167.651 924.448L167.647 924.446L166.826 926.27ZM200.998 1041.16L202.683 1042.24L202.689 1042.23L200.998 1041.16ZM167.107 1070.27L167.951 1072.08L167.958 1072.08L167.965 1072.08L167.107 1070.27ZM116.061 1080.82V1082.82H116.07L116.08 1082.82L116.061 1080.82ZM14.5293 1041.58L16.2145 1040.51L16.2125 1040.5L14.5293 1041.58ZM14.3887 955.238L16.0739 956.315L16.0786 956.308L16.0832 956.301L14.3887 955.238ZM48.8418 926.27L49.6583 928.095L49.6625 928.093L48.8418 926.27ZM45.1855 957.629L46.3837 959.23L46.3892 959.226L45.1855 957.629ZM45.1855 1038.91L43.98 1040.51L43.9818 1040.51L45.1855 1038.91ZM99.1855 1053.96L99.1611 1055.96L99.1733 1055.96H99.1855V1053.96ZM169.779 1039.19L170.958 1040.81L170.964 1040.8L170.97 1040.8L169.779 1039.19ZM170.904 957.77L172.11 956.174L172.104 956.17L170.904 957.77ZM116.201 943.004L116.225 941.004L116.213 941.004H116.201V943.004ZM114.232 918.145C134.073 918.145 151.314 921.482 166.005 928.093L167.647 924.446C152.339 917.557 134.517 914.145 114.232 914.145V918.145ZM166.001 928.091C180.596 934.7 191.668 944.021 199.311 956.031L202.685 953.883C194.578 941.143 182.869 931.339 167.651 924.448L166.001 928.091ZM199.311 956.031C206.957 968.046 210.811 982.101 210.811 998.27H214.811C214.811 981.438 210.789 966.618 202.685 953.883L199.311 956.031ZM210.811 998.27C210.811 1014.05 206.961 1027.97 199.307 1040.09L202.689 1042.23C210.785 1029.41 214.811 1014.74 214.811 998.27H210.811ZM199.313 1040.08C191.565 1052.21 180.569 1061.67 166.25 1068.46L167.965 1072.08C182.896 1064.99 194.494 1055.05 202.683 1042.24L199.313 1040.08ZM166.264 1068.46C151.848 1075.16 135.122 1078.63 116.041 1078.82L116.08 1082.82C135.624 1082.63 152.929 1079.07 167.951 1072.08L166.264 1068.46ZM116.061 1078.82H101.295V1082.82H116.061V1078.82ZM101.295 1078.82C81.8395 1078.82 64.7391 1075.44 49.9489 1068.73L48.2971 1072.37C63.6945 1079.35 81.3754 1082.82 101.295 1082.82V1078.82ZM49.9489 1068.73C35.1639 1062.03 23.9505 1052.61 16.2145 1040.51L12.8441 1042.66C21.0456 1055.49 32.8946 1065.39 48.2971 1072.37L49.9489 1068.73ZM16.2125 1040.5C8.37348 1028.29 4.43554 1014.32 4.43554 998.551H0.435543C0.435543 1015.03 4.56011 1029.75 12.8461 1042.66L16.2125 1040.5ZM4.43554 998.551C4.43554 982.483 8.33265 968.428 16.0739 956.315L12.7034 954.161C4.50718 966.986 0.435543 981.806 0.435543 998.551H4.43554ZM16.0832 956.301C23.7238 944.112 34.8832 934.703 49.6583 928.095L48.0253 924.444C32.6129 931.336 20.8035 941.24 12.6941 954.176L16.0832 956.301ZM49.6625 928.093C64.3554 921.482 81.5498 918.145 101.295 918.145V914.145C81.1025 914.145 63.3282 917.558 48.0211 924.446L49.6625 928.093ZM101.295 918.145H114.232V914.145H101.295V918.145ZM101.014 941.004C76.5042 941.004 57.4009 945.919 43.9818 956.032L46.3892 959.226C58.8451 949.839 76.9606 945.004 101.014 945.004V941.004ZM43.9874 956.028C30.4078 966.188 23.6387 980.446 23.6387 998.551H27.6387C27.6387 981.593 33.9007 968.57 46.3837 959.23L43.9874 956.028ZM23.6387 998.551C23.6387 1016.21 30.4228 1030.26 43.98 1040.51L46.391 1037.31C33.8858 1027.87 27.6387 1015.02 27.6387 998.551H23.6387ZM43.9818 1040.51C57.3766 1050.6 75.8473 1055.67 99.1611 1055.96L99.2099 1051.96C76.3988 1051.68 58.8695 1046.72 46.3892 1037.31L43.9818 1040.51ZM99.1855 1055.96H114.232V1051.96H99.1855V1055.96ZM114.232 1055.96C138.019 1055.96 157.001 1050.98 170.958 1040.81L168.601 1037.58C155.558 1047.09 137.508 1051.96 114.232 1051.96V1055.96ZM170.97 1040.8C184.908 1030.47 191.889 1016.22 191.889 998.27H187.889C187.889 1015.01 181.463 1028.04 168.588 1037.58L170.97 1040.8ZM191.889 998.27C191.889 980.277 185.321 966.156 172.11 956.174L169.699 959.365C181.8 968.509 187.889 981.387 187.889 998.27H191.889ZM172.104 956.17C158.885 946.255 140.171 941.288 116.225 941.004L116.177 945.004C139.669 945.282 157.424 950.159 169.704 959.37L172.104 956.17ZM116.201 941.004H101.014V945.004H116.201V941.004ZM209.998 718.285H211.998V716.285H209.998V718.285ZM209.998 745.426L211.092 747.1L211.998 746.508V745.426H209.998ZM52.2168 848.504L51.1229 846.83L45.4986 850.504H52.2168V848.504ZM209.998 848.504H211.998V846.504H209.998V848.504ZM209.998 875.645V877.645H211.998V875.645H209.998ZM5.24804 875.645H3.24804V877.645H5.24804V875.645ZM5.24804 848.504L4.15551 846.829L3.24804 847.421V848.504H5.24804ZM163.732 745.145L164.825 746.82L170.46 743.145H163.732V745.145ZM5.24804 745.145H3.24804V747.145H5.24804V745.145ZM5.24804 718.285V716.285H3.24804V718.285H5.24804ZM207.998 718.285V745.426H211.998V718.285H207.998ZM208.904 743.751L51.1229 846.83L53.3106 850.178L211.092 747.1L208.904 743.751ZM52.2168 850.504H209.998V846.504H52.2168V850.504ZM207.998 848.504V875.645H211.998V848.504H207.998ZM209.998 873.645H5.24804V877.645H209.998V873.645ZM7.24804 875.645V848.504H3.24804V875.645H7.24804ZM6.34058 850.179L164.825 746.82L162.64 743.469L4.15551 846.829L6.34058 850.179ZM163.732 743.145H5.24804V747.145H163.732V743.145ZM7.24804 745.145V718.285H3.24804V745.145H7.24804ZM5.24804 720.285H209.998V716.285H5.24804V720.285ZM27.4668 533.082H29.4668V531.082H27.4668V533.082ZM27.4668 598.895H25.4668V600.895H27.4668V598.895ZM209.998 598.895H211.998V596.895H209.998V598.895ZM209.998 625.754V627.754H211.998V625.754H209.998ZM27.4668 625.754V623.754H25.4668V625.754H27.4668ZM27.4668 691.426V693.426H29.4668V691.426H27.4668ZM5.24804 691.426H3.24804V693.426H5.24804V691.426ZM5.24804 533.082V531.082H3.24804V533.082H5.24804ZM25.4668 533.082V598.895H29.4668V533.082H25.4668ZM27.4668 600.895H209.998V596.895H27.4668V600.895ZM207.998 598.895V625.754H211.998V598.895H207.998ZM209.998 623.754H27.4668V627.754H209.998V623.754ZM25.4668 625.754V691.426H29.4668V625.754H25.4668ZM27.4668 689.426H5.24804V693.426H27.4668V689.426ZM7.24804 691.426V533.082H3.24804L3.24804 691.426H7.24804ZM5.24804 535.082H27.4668V531.082H5.24804V535.082ZM156.561 400.895L155.873 399.016L154.561 399.497V400.895H156.561ZM156.561 486.676H154.561V488.081L155.882 488.557L156.561 486.676ZM209.998 505.941H211.998V504.536L210.676 504.06L209.998 505.941ZM209.998 533.785L209.285 535.654L211.998 536.69V533.785H209.998ZM5.24804 455.598H3.24804V456.975L4.53456 457.466L5.24804 455.598ZM5.24804 431.973L4.53344 430.105L3.24804 430.596L3.24804 431.973H5.24804ZM209.998 353.645H211.998V350.738L209.283 351.777L209.998 353.645ZM209.998 381.348L210.685 383.226L211.998 382.746V381.348H209.998ZM134.342 478.52L133.66 480.4L136.342 481.372V478.52H134.342ZM134.342 408.91H136.342V406.053L133.657 407.031L134.342 408.91ZM38.5762 443.785L37.8918 441.906L32.721 443.789L37.8942 445.665L38.5762 443.785ZM154.561 400.895V486.676H158.561V400.895H154.561ZM155.882 488.557L209.32 507.823L210.676 504.06L157.239 484.794L155.882 488.557ZM207.998 505.941V533.785H211.998V505.941H207.998ZM210.712 531.917L5.96153 453.729L4.53456 457.466L209.285 535.654L210.712 531.917ZM7.24804 455.598V431.973H3.24804V455.598H7.24804ZM5.96265 433.841L210.713 355.513L209.283 351.777L4.53344 430.105L5.96265 433.841ZM207.998 353.645V381.348H211.998V353.645H207.998ZM209.311 379.469L155.873 399.016L157.248 402.773L210.685 383.226L209.311 379.469ZM136.342 478.52V408.91H132.342V478.52H136.342ZM133.657 407.031L37.8918 441.906L39.2605 445.664L135.026 410.789L133.657 407.031ZM37.8942 445.665L133.66 480.4L135.024 476.639L39.2581 441.905L37.8942 445.665ZM145.029 177.16L145.261 175.174L143.029 174.913V177.16H145.029ZM195.232 201.207L196.738 199.891L196.738 199.89L195.232 201.207ZM186.795 313.004L188.079 314.537L188.084 314.533L186.795 313.004ZM47.2949 324.676L46.4382 326.483L46.4479 326.488L47.2949 324.676ZM14.1074 295.707L15.8099 294.657L15.8041 294.648L14.1074 295.707ZM20.7168 200.082L22.1824 201.443L22.1876 201.437L20.7168 200.082ZM71.0605 177.16H73.0605V174.949L70.8607 175.17L71.0605 177.16ZM71.0605 204.301L71.345 206.281L73.0605 206.034V204.301H71.0605ZM35.623 219.629L37.0805 220.999L37.0886 220.99L35.623 219.629ZM43.7793 293.035L42.557 294.618L42.5644 294.624L43.7793 293.035ZM180.607 220.332L182.133 219.039L182.132 219.038L180.607 220.332ZM145.029 204.301H143.029V206.014L144.722 206.277L145.029 204.301ZM144.797 179.147C166.072 181.633 182.308 189.474 193.727 202.524L196.738 199.89C184.531 185.94 167.299 177.75 145.261 175.174L144.797 179.147ZM193.727 202.523C205.052 215.48 210.811 232.83 210.811 254.785H214.811C214.811 232.115 208.85 213.747 196.738 199.891L193.727 202.523ZM210.811 254.785C210.811 278.428 202.366 297.258 185.506 311.475L188.084 314.533C205.912 299.5 214.811 279.518 214.811 254.785H210.811ZM185.51 311.471C168.619 325.623 145.915 332.801 117.186 332.801V336.801C146.581 336.801 170.283 329.447 188.079 314.537L185.51 311.471ZM117.186 332.801H97.498V336.801H117.186V332.801ZM97.498 332.801C78.7034 332.801 62.2678 329.468 48.142 322.864L46.4479 326.488C61.197 333.383 78.2301 336.801 97.498 336.801V332.801ZM48.1516 322.869C34.0303 316.175 23.2762 306.768 15.8099 294.657L12.405 296.757C20.3136 309.584 31.6845 319.489 46.4382 326.483L48.1516 322.869ZM15.8041 294.648C8.24356 282.533 4.43554 268.471 4.43554 252.395H0.435543C0.435543 269.13 4.40878 283.944 12.4107 296.766L15.8041 294.648ZM4.43554 252.395C4.43554 231.035 10.4089 214.122 22.1824 201.443L19.2512 198.721C6.64973 212.292 0.435543 230.254 0.435543 252.395H4.43554ZM22.1876 201.437C33.8835 188.744 50.1719 181.268 71.2604 179.15L70.8607 175.17C49.0116 177.365 31.7376 185.17 19.246 198.727L22.1876 201.437ZM69.0605 177.16V204.301H73.0605V177.16H69.0605ZM70.7761 202.321C54.2404 204.697 41.9092 209.92 34.1575 218.268L37.0886 220.99C43.9619 213.588 55.2556 208.592 71.345 206.281L70.7761 202.321ZM34.1656 218.259C26.4055 226.517 22.6543 237.989 22.6543 252.395H26.6543C26.6543 238.675 30.2155 228.304 37.0805 220.999L34.1656 218.259ZM22.6543 252.395C22.6543 270.213 29.2777 284.366 42.5571 294.618L45.0015 291.452C32.7809 282.017 26.6543 269.076 26.6543 252.395H22.6543ZM42.5644 294.624C55.7925 304.74 74.4275 309.66 98.2012 309.66V305.66C74.9123 305.66 57.266 300.831 44.9942 291.446L42.5644 294.624ZM98.2012 309.66H118.029V305.66H98.2012V309.66ZM118.029 309.66C140.508 309.66 158.63 304.967 172.2 295.371L169.89 292.105C157.21 301.072 139.988 305.66 118.029 305.66V309.66ZM172.2 295.371C185.878 285.699 192.732 272.093 192.732 254.785H188.732C188.732 270.853 182.462 283.216 169.89 292.105L172.2 295.371ZM192.732 254.785C192.732 239.515 189.299 227.499 182.133 219.039L179.081 221.625C185.416 229.103 188.732 240.056 188.732 254.785H192.732ZM182.132 219.038C174.836 210.442 162.412 204.981 145.337 202.325L144.722 206.277C161.396 208.871 172.691 214.097 179.083 221.626L182.132 219.038ZM147.029 204.301V177.16H143.029V204.301H147.029ZM27.4668 2.92586H29.4668V0.925858H27.4668V2.92586ZM27.4668 68.7384H25.4668V70.7384H27.4668V68.7384ZM209.998 68.7384H211.998V66.7384H209.998V68.7384ZM209.998 95.5977V97.5977H211.998V95.5977H209.998ZM27.4668 95.5977V93.5977H25.4668V95.5977H27.4668ZM27.4668 161.27V163.27H29.4668V161.27H27.4668ZM5.24804 161.27H3.24804V163.27H5.24804V161.27ZM5.24804 2.92586V0.925858H3.24804V2.92586H5.24804ZM25.4668 2.92586L25.4668 68.7384H29.4668L29.4668 2.92586H25.4668ZM27.4668 70.7384H209.998V66.7384H27.4668V70.7384ZM207.998 68.7384V95.5977H211.998V68.7384H207.998ZM209.998 93.5977H27.4668V97.5977H209.998V93.5977ZM25.4668 95.5977V161.27H29.4668V95.5977H25.4668ZM27.4668 159.27H5.24804V163.27H27.4668V159.27ZM7.24804 161.27L7.24804 2.92586H3.24804L3.24804 161.27H7.24804ZM5.24804 4.92586H27.4668V0.925858H5.24804V4.92586Z" fill="#FF0000"/>
</svg>
