<svg id="Layer_1" data-name="Layer 1" xmlns="http://www.w3.org/2000/svg" viewBox="0 0 214.38 809.82"><defs><style>.cls-1{fill:red;}.cls-2{font-size:36px;fill:none;stroke:#b2b1bb;stroke-miterlimit:10;font-family:Impact;}</style></defs><path class="cls-1" d="M145.45,748.08l-.29-2h-.08l-.08,0Zm27-3.93.29,2,.17-3.92Zm-24.33-5.77-.54,1.92,0,0h0ZM5.25,697.88h-2v1.51l1.45.41Zm0-22.78-.54-1.93-1.46.41v1.52Zm142.87-39.52-.44-2h-.09ZM172.87,630l.45,1.95-.14-3.93Zm-27.56-4.36-.44,1.95H145ZM5.25,593.82h-2v1.59l1.56.36Zm0-27.14.47-1.95-2.47-.6v2.55ZM210,616.32h2v-1.58l-1.53-.37Zm0,24.61.54,1.92,1.46-.41v-1.51ZM60.79,683.11l.41,2h.07l.07,0Zm-15.6,3.24-.41-2v3.92Zm15.6,3.23.57-1.92-.08,0-.08,0ZM210,733.32h2v-1.5l-1.44-.42Zm0,24.61.47,1.94,1.53-.37v-1.57ZM5.25,807.43h-2V810l2.47-.6Zm0-27-.45-1.95-1.55.36v1.59Zm140.49-30.37,27-3.94-.58-4-27,3.94Zm27.17-7.86-24.33-5.77-.92,3.9L172,746.09Zm-24.24-5.74L5.79,696,4.7,699.8l142.88,40.5ZM7.25,697.88V675.1h-4v22.78ZM5.78,677l142.88-39.52-1.07-3.86L4.71,673.17Zm142.79-39.5,24.75-5.62-.89-3.9-24.75,5.62ZM173.18,628l-27.56-4.36-.62,4,27.56,4.36Zm-27.43-4.33L5.69,591.87l-.88,3.9,140.06,31.78ZM7.25,593.82V566.68h-4v27.14Zm-2.47-25.2,204.75,49.64.94-3.89L5.72,564.73ZM208,616.32v24.61h4V616.32ZM209.45,639,60.25,681.19,61.34,685l149.2-42.19ZM60.39,681.16l-15.61,3.23.81,3.92,15.61-3.24Zm-15.61,7.15,15.61,3.23.81-3.92-15.61-3.23Zm15.45,3.19,149.2,43.74,1.13-3.84L61.36,687.66ZM208,733.32v24.61h4V733.32ZM209.53,756,4.78,805.48l.94,3.89,204.75-49.5ZM7.25,807.43v-27h-4v27Zm-1.55-25L145.9,750l-.9-3.9L4.8,778.48ZM166.83,389.21l.82-1.82h0ZM201,504.1l1.68,1.07h0Zm-33.89,29.11L168,535h0Zm-51.05,10.54v2h0ZM14.53,504.52l1.68-1.08h0Zm-.14-86.34,1.68,1.07h0Zm34.45-29,.82,1.82h0Zm-3.65,31.36,1.19,1.6h0Zm0,81.28L44,503.44h0Zm54,15,0,2h0Zm70.59-14.77,1.18,1.61h0Zm1.12-81.42,1.21-1.6h0Zm-54.7-14.77,0-2h0Zm-2-24.86Q144,381.08,166,391l1.64-3.65q-23-10.33-53.42-10.3ZM166,391q21.9,9.92,33.31,27.94l3.37-2.15q-12.15-19.11-35-29.43ZM199.31,419q11.48,18,11.5,42.24h4q0-25.24-12.13-44.39Zm11.5,42.24q0,23.67-11.5,41.82l3.38,2.14q12.15-19.23,12.12-44ZM199.31,503Q187.7,521.2,166.25,531.4L168,535q22.41-10.62,34.72-29.84Zm-33.05,28.37Q144.64,541.46,116,541.75l0,4Q145.39,545.46,168,535Zm-50.2,10.36H101.29v4h14.77Zm-14.77,0q-29.17,0-51.34-10.08l-1.65,3.64q23.08,10.47,53,10.44ZM50,531.67C35.16,525,24,515.55,16.21,503.44l-3.37,2.16q12.32,19.24,35.46,29.71ZM16.21,503.44Q4.45,485.13,4.44,461.49h-4q0,24.7,12.41,44.11ZM4.44,461.49c0-16.07,3.89-30.12,11.63-42.24L12.7,417.1Q.41,436.33.44,461.49Zm11.64-42.25Q27.54,401,49.66,391L48,387.38Q24.9,397.72,12.69,417.11ZM49.66,391q22.05-9.91,51.63-9.95v-4Q71,377.08,48,387.38Zm51.63-9.95h12.94v-4H101.29ZM101,403.94c-24.51,0-43.61,4.92-57,15l2.41,3.19C58.85,412.78,77,407.94,101,407.94ZM44,419c-13.58,10.17-20.35,24.42-20.35,42.53h4c0-17,6.26-30,18.74-39.32ZM23.64,461.49c0,17.65,6.78,31.71,20.34,41.95l2.41-3.19C33.89,490.8,27.64,478,27.64,461.49Zm20.34,42c13.4,10.09,31.87,15.16,55.18,15.44l0-4c-22.81-.28-40.34-5.24-52.82-14.65ZM99.19,518.9h15v-4h-15Zm15,0c23.79,0,42.77-5,56.73-15.16l-2.36-3.23c-13,9.51-31.09,14.39-54.37,14.39ZM171,503.74c13.94-10.34,20.92-24.59,20.92-42.53h-4c0,16.74-6.43,29.77-19.3,39.31Zm20.92-42.53c0-18-6.57-32.12-19.78-42.1l-2.41,3.19c12.1,9.15,18.19,22,18.19,38.91Zm-19.79-42.1c-13.22-9.92-31.93-14.88-55.88-15.17l0,4c23.49.28,41.24,5.16,53.52,14.37Zm-55.9-15.17H101v4H116.2Zm11-140.45-1-1.76-1,.56v1.2Zm0,48.09h-2v2h2Zm82.83,0h2v-2h-2Zm0,27.14v2h2v-2Zm-204.75,0h-2v2h2ZM21,217.79l1.52,1.29h0Zm79.17-8.3L99,211.1h0Zm21.23,28.69-1.86.71.82,2.15,2-1.11Zm86.91-48.1v-2h-.52l-.45.25Zm1.69,0h2v-2h-2Zm0,29,.94,1.76,1.06-.56v-1.2ZM105.09,311.58v2h2v-2Zm-10.4-73.4-1.51,1.31h0Zm-57-.57L39.22,239h0ZM27.47,270.24h0Zm0,41.34h-2v2h2Zm97.7-48.09v48.09h4V263.49Zm2,50.09H210v-4H127.17Zm80.83-2v27.14h4V311.58Zm2,25.14H5.25v4H210Zm-202.75,2V270.94h-4v67.78Zm0-67.78c0-22.78,5.19-40,15.27-51.86l-3.05-2.59C8.56,229.35,3.25,247.6,3.25,270.94Zm15.28-51.87c10-11.91,24.69-18,44.31-18v-4c-20.5,0-36.41,6.39-47.37,19.42Zm44.31-18c12.37,0,23,3.36,32.15,10l2.36-3.22c-9.84-7.22-21.37-10.8-34.51-10.8Zm32.16,10c9.11,6.59,16,15.82,20.54,27.78l3.73-1.43q-7.22-18.9-21.93-29.59Zm23.37,28.82,86.91-48.1-1.94-3.5-86.9,48.1Zm85.94-47.85H210v-4h-1.69Zm-.31-2v29h4v-29Zm1.05,27.21-82.83,44.44,1.9,3.52,82.82-44.44Zm-102,94.29V270.1h-4v41.48Zm0-41.48c0-13.76-3.56-24.91-10.9-33.25l-3,2.65c6.54,7.41,9.91,17.54,9.91,30.6Zm-10.9-33.24c-7.35-8.45-17.21-12.64-29.35-12.64v4c11.11,0,19.82,3.78,26.34,11.27ZM66.84,224.22c-13.07,0-23.38,3.94-30.6,12.07l3,2.65c6.28-7.06,15.38-10.72,27.61-10.72ZM36.25,236.27c-7.19,8-10.69,19.42-10.78,34l4,0c.09-14,3.44-24.29,9.75-31.3Zm-10.78,34v41.34h4V270.24Zm2,43.34h77.62v-4H27.47Zm87.32-204.5-1.21-1.59-1.85,1.42,1.68,1.61Zm26,25-1.39,1.44.59.56h.8Zm69.19,0h2v-2h-2Zm0,27v2h2v-2Zm-204.75,0h-2v2h2Zm0-27v-2h-2v2Zm101.25,0v2h5.22l-3.89-3.48ZM5.25,43.13h-2V44l.66.6Zm0-32.63L6.58,9,3.25,6V10.5ZM95.67,91.08l-1.33,1.5,1.23,1.09,1.31-1ZM210,4.18h2v-4l-3.21,2.44Zm0,32.34,1.21,1.59.79-.6v-1Zm-96.59,74,26,25,2.78-2.88-26-25Zm27.4,25.59H210v-4H140.81Zm67.19-2v27h4v-27Zm2,25H5.25v4H210Zm-202.75,2v-27h-4v27Zm-2-25H106.5v-4H5.25Zm102.58-3.48L6.58,41.64l-2.67,3,101.25,91ZM7.25,43.13V10.5h-4V43.13ZM3.92,12,94.34,92.58l2.66-3L6.58,9Zm93,80.67L211.21,5.77l-2.42-3.19L94.46,89.49ZM208,4.18V36.52h4V4.18Zm.79,30.75-95.21,72.56,2.43,3.18,95.2-72.56Z" transform="translate(-0.44 -0.14)"/><text class="cls-2" transform="translate(55.37 477.86)">RECENT</text></svg>