<svg width="811" height="216" viewBox="0 0 811 216" fill="none" xmlns="http://www.w3.org/2000/svg">
<path d="M62.4199 145.957L64.399 145.668L64.3872 145.587L64.3687 145.507L62.4199 145.957ZM66.3574 172.957L64.3784 173.246L68.3035 173.418L66.3574 172.957ZM72.123 148.629L70.1989 148.083L70.187 148.125L70.1769 148.168L72.123 148.629ZM112.623 5.7539V3.7539H111.111L110.699 5.20846L112.623 5.7539ZM135.404 5.7539L137.332 5.22077L136.926 3.7539H135.404V5.7539ZM174.92 148.629L176.87 148.186L176.86 148.14L176.848 148.096L174.92 148.629ZM180.545 173.379L178.595 173.822L182.52 173.691L180.545 173.379ZM184.904 145.816L182.954 145.374L182.939 145.438L182.929 145.504L184.904 145.816ZM216.686 5.7539V3.7539H215.089L214.735 5.31134L216.686 5.7539ZM243.826 5.7539L245.77 6.22514L246.369 3.7539H243.826V5.7539ZM194.186 210.504V212.504H195.759L196.129 210.975L194.186 210.504ZM169.576 210.504L167.652 211.048L168.063 212.504H169.576V210.504ZM127.389 61.3008L125.43 61.7066L125.445 61.7764L125.464 61.8449L127.389 61.3008ZM124.154 45.6914L126.113 45.2856H122.196L124.154 45.6914ZM120.92 61.3008L122.839 61.8633L122.862 61.7857L122.878 61.7066L120.92 61.3008ZM77.1855 210.504V212.504H78.6835L79.1048 211.066L77.1855 210.504ZM52.5762 210.504L50.6322 210.974L51.0021 212.504H52.5762V210.504ZM3.07617 5.7539V3.7539H0.535038L1.13218 6.22388L3.07617 5.7539ZM30.0762 5.7539L32.025 5.30433L31.6673 3.7539H30.0762V5.7539ZM60.4409 146.246L64.3784 173.246L68.3365 172.668L64.399 145.668L60.4409 146.246ZM68.3035 173.418L74.0691 149.09L70.1769 148.168L64.4113 172.496L68.3035 173.418ZM74.0472 149.174L114.547 6.29934L110.699 5.20846L70.1989 148.083L74.0472 149.174ZM112.623 7.7539H135.404V3.7539H112.623V7.7539ZM133.477 6.28704L172.992 149.162L176.848 148.096L137.332 5.22077L133.477 6.28704ZM172.97 149.072L178.595 173.822L182.495 172.936L176.87 148.186L172.97 149.072ZM182.52 173.691L186.88 146.129L182.929 145.504L178.569 173.066L182.52 173.691ZM186.855 146.259L218.636 6.19647L214.735 5.31134L182.954 145.374L186.855 146.259ZM216.686 7.7539H243.826V3.7539H216.686V7.7539ZM241.882 5.28266L192.242 210.033L196.129 210.975L245.77 6.22514L241.882 5.28266ZM194.186 208.504H169.576V212.504H194.186V208.504ZM171.501 209.96L129.313 60.7566L125.464 61.8449L167.652 211.048L171.501 209.96ZM129.347 60.895L126.113 45.2856L122.196 46.0972L125.43 61.7066L129.347 60.895ZM122.196 45.2856L118.962 60.895L122.878 61.7066L126.113 46.0972L122.196 45.2856ZM119.001 60.7382L75.2663 209.941L79.1048 211.066L122.839 61.8633L119.001 60.7382ZM77.1855 208.504H52.5762V212.504H77.1855V208.504ZM54.5202 210.034L5.02017 5.28393L1.13218 6.22388L50.6322 210.974L54.5202 210.034ZM3.07617 7.7539H30.0762V3.7539H3.07617V7.7539ZM28.1274 6.20348L60.4711 146.407L64.3687 145.507L32.025 5.30433L28.1274 6.20348ZM421.295 167.332L423.117 168.157L423.119 168.153L421.295 167.332ZM306.404 201.504L305.327 203.189L305.336 203.195L306.404 201.504ZM277.295 167.613L275.481 168.457L275.485 168.463L275.488 168.47L277.295 167.613ZM266.748 116.566H264.748V116.576L264.748 116.586L266.748 116.566ZM305.982 15.0352L307.059 16.7204L307.063 16.7183L305.982 15.0352ZM392.326 14.8945L391.249 16.5798L391.256 16.5845L391.264 16.5891L392.326 14.8945ZM421.295 49.3476L419.469 50.1641L419.471 50.1684L421.295 49.3476ZM389.936 45.6914L388.334 46.8896L388.338 46.8951L389.936 45.6914ZM308.654 45.6914L307.058 44.4859L307.057 44.4877L308.654 45.6914ZM293.607 99.6914L291.608 99.667L291.607 99.6792V99.6914H293.607ZM308.373 170.285L306.757 171.463L306.762 171.47L306.766 171.476L308.373 170.285ZM389.795 171.41L391.391 172.616L391.395 172.61L389.795 171.41ZM404.561 116.707L406.56 116.731L406.561 116.719V116.707H404.561ZM429.42 114.738C429.42 134.579 426.082 151.82 419.471 166.511L423.119 168.153C430.007 152.845 433.42 135.023 433.42 114.738H429.42ZM419.473 166.507C412.864 181.102 403.544 192.174 391.534 199.817L393.681 203.191C406.421 195.084 416.226 183.375 423.117 168.157L419.473 166.507ZM391.534 199.817C379.518 207.463 365.463 211.316 349.295 211.316V215.316C366.126 215.316 380.946 211.295 393.681 203.191L391.534 199.817ZM349.295 211.316C333.511 211.316 319.592 207.467 307.472 199.813L305.336 203.195C318.154 211.29 332.828 215.316 349.295 215.316V211.316ZM307.481 199.819C295.358 192.071 285.894 181.075 279.102 166.756L275.488 168.47C282.571 183.401 292.513 194.999 305.327 203.189L307.481 199.819ZM279.108 166.77C272.405 152.354 268.933 135.628 268.748 116.547L264.748 116.586C264.938 136.13 268.497 153.435 275.481 168.457L279.108 166.77ZM268.748 116.566V101.801H264.748V116.566H268.748ZM268.748 101.801C268.748 82.3453 272.129 65.245 278.835 50.4548L275.192 48.803C268.211 64.2003 264.748 81.8812 264.748 101.801H268.748ZM278.835 50.4548C285.539 35.6698 294.955 24.4563 307.059 16.7204L304.905 13.3499C292.072 21.5515 282.176 33.4005 275.192 48.803L278.835 50.4548ZM307.063 16.7183C319.277 8.87934 333.24 4.9414 349.014 4.9414V0.941403C332.538 0.941403 317.813 5.06597 304.902 13.352L307.063 16.7183ZM349.014 4.9414C365.081 4.9414 379.136 8.83851 391.249 16.5798L393.403 13.2093C380.578 5.01304 365.759 0.941403 349.014 0.941403V4.9414ZM391.264 16.5891C403.452 24.2297 412.862 35.389 419.469 50.1641L423.121 48.5312C416.228 33.1188 406.325 21.3094 393.388 13.2L391.264 16.5891ZM419.471 50.1684C426.083 64.8612 429.42 82.0557 429.42 101.801H433.42C433.42 81.6084 430.007 63.834 423.119 48.5269L419.471 50.1684ZM429.42 101.801V114.738H433.42V101.801H429.42ZM406.561 101.52C406.561 77.0101 401.646 57.9068 391.533 44.4877L388.338 46.8951C397.725 59.351 402.561 77.4665 402.561 101.52H406.561ZM391.537 44.4932C381.377 30.9137 367.119 24.1445 349.014 24.1445V28.1445C365.971 28.1445 378.994 34.4066 388.334 46.8896L391.537 44.4932ZM349.014 24.1445C331.357 24.1445 317.3 30.9286 307.058 44.4859L310.25 46.8969C319.697 34.3917 332.545 28.1445 349.014 28.1445V24.1445ZM307.057 44.4877C296.962 57.8824 291.892 76.3532 291.608 99.667L295.607 99.7158C295.885 76.9046 300.846 59.3754 310.251 46.8951L307.057 44.4877ZM291.607 99.6914V114.738H295.607V99.6914H291.607ZM291.607 114.738C291.607 138.525 296.58 157.507 306.757 171.463L309.989 169.107C300.478 156.063 295.607 138.014 295.607 114.738H291.607ZM306.766 171.476C317.098 185.414 331.347 192.395 349.295 192.395V188.395C332.555 188.395 319.523 181.968 309.98 169.094L306.766 171.476ZM349.295 192.395C367.288 192.395 381.409 185.827 391.391 172.616L388.199 170.204C379.056 182.306 366.177 188.395 349.295 188.395V192.395ZM391.395 172.61C401.309 159.391 406.276 140.677 406.56 116.731L402.561 116.683C402.282 140.175 397.405 157.929 388.195 170.21L391.395 172.61ZM406.561 116.707V101.52H402.561V116.707H406.561ZM547.014 127.676L548.776 126.73L548.21 125.676H547.014V127.676ZM498.92 127.676V125.676H496.92V127.676H498.92ZM498.92 210.504V212.504H500.92V210.504H498.92ZM471.779 210.504H469.779V212.504H471.779V210.504ZM471.779 5.7539V3.7539H469.779V5.7539H471.779ZM592.717 21.5039L591.423 23.0289L591.428 23.0337L592.717 21.5039ZM601.014 100.676L599.4 99.4937L599.393 99.5042L601.014 100.676ZM572.326 121.91L571.613 120.042L569.461 120.863L570.576 122.879L572.326 121.91ZM620.42 208.816H622.42V208.3L622.17 207.848L620.42 208.816ZM620.42 210.504V212.504H622.42V210.504H620.42ZM591.451 210.504L589.689 211.449L590.254 212.504H591.451V210.504ZM498.92 105.598H496.92V107.598H498.92V105.598ZM572.326 95.1914L571.013 93.6829L571.004 93.6907L572.326 95.1914ZM572.889 38.2383L571.551 39.7249L571.56 39.7331L572.889 38.2383ZM540.264 27.9727L540.277 25.9727H540.264V27.9727ZM498.92 27.9727V25.9727H496.92V27.9727H498.92ZM547.014 125.676H498.92V129.676H547.014V125.676ZM496.92 127.676V210.504H500.92V127.676H496.92ZM498.92 208.504H471.779V212.504H498.92V208.504ZM473.779 210.504V5.7539H469.779V210.504H473.779ZM471.779 7.7539H539.561V3.7539H471.779V7.7539ZM539.561 7.7539C562.346 7.7539 579.535 12.9425 591.423 23.0289L594.011 19.9789C581.148 9.06532 562.9 3.7539 539.561 3.7539V7.7539ZM591.428 23.0337C603.343 33.0674 609.42 47.7264 609.42 67.3476H613.42C613.42 46.8439 607.028 30.9405 594.005 19.9741L591.428 23.0337ZM609.42 67.3476C609.42 79.7113 606.065 90.3978 599.4 99.4937L602.627 101.858C609.838 92.0162 613.42 80.484 613.42 67.3476H609.42ZM599.393 99.5042C592.805 108.619 583.577 115.475 571.613 120.042L573.039 123.779C585.638 118.97 595.535 111.67 602.635 101.847L599.393 99.5042ZM570.576 122.879L618.67 209.785L622.17 207.848L574.076 120.942L570.576 122.879ZM618.42 208.816V210.504H622.42V208.816H618.42ZM620.42 208.504H591.451V212.504H620.42V208.504ZM593.214 209.558L548.776 126.73L545.251 128.621L589.689 211.449L593.214 209.558ZM498.92 107.598H540.404V103.598H498.92V107.598ZM540.404 107.598C554.158 107.598 565.316 104.033 573.648 96.6921L571.004 93.6907C563.587 100.225 553.463 103.598 540.404 103.598V107.598ZM573.639 96.6998C582.091 89.3417 586.279 79.4859 586.279 67.3476H582.279C582.279 78.4594 578.498 87.1661 571.013 93.683L573.639 96.6998ZM586.279 67.3476C586.279 54.2714 582.339 43.9631 574.217 36.7435L571.56 39.7331C578.625 46.0135 582.279 55.1114 582.279 67.3476H586.279ZM574.227 36.7517C566.237 29.5611 554.816 26.0683 540.277 25.9727L540.25 29.9726C554.212 30.0645 564.54 33.4155 571.551 39.7249L574.227 36.7517ZM540.264 25.9727H498.92V29.9727H540.264V25.9727ZM496.92 27.9727V105.598H500.92V27.9727H496.92ZM701.42 115.301L703.011 114.088L701.596 112.233L699.979 113.914L701.42 115.301ZM676.389 141.316L674.947 139.93L674.389 140.51V141.316H676.389ZM676.389 210.504V212.504H678.389V210.504H676.389ZM649.389 210.504H647.389V212.504H649.389V210.504ZM649.389 5.7539V3.7539H647.389V5.7539H649.389ZM676.389 5.7539H678.389V3.7539H676.389V5.7539ZM676.389 107.004H674.389V112.222L677.876 108.341L676.389 107.004ZM767.373 5.7539V3.7539H766.481L765.885 4.41712L767.373 5.7539ZM799.998 5.7539L801.491 7.0845L804.459 3.7539H799.998V5.7539ZM719.42 96.1758L717.927 94.8452L716.831 96.0748L717.828 97.3861L719.42 96.1758ZM806.326 210.504V212.504H810.359L807.918 209.294L806.326 210.504ZM773.982 210.504L772.392 211.716L772.992 212.504H773.982V210.504ZM699.979 113.914L674.947 139.93L677.83 142.703L702.861 116.687L699.979 113.914ZM674.389 141.316V210.504H678.389V141.316H674.389ZM676.389 208.504H649.389V212.504H676.389V208.504ZM651.389 210.504V5.7539H647.389V210.504H651.389ZM649.389 7.7539H676.389V3.7539H649.389V7.7539ZM674.389 5.7539V107.004H678.389V5.7539H674.389ZM677.876 108.341L768.861 7.09069L765.885 4.41712L674.901 105.667L677.876 108.341ZM767.373 7.7539H799.998V3.7539H767.373V7.7539ZM798.505 4.4233L717.927 94.8452L720.913 97.5064L801.491 7.0845L798.505 4.4233ZM717.828 97.3861L804.734 211.714L807.918 209.294L721.012 94.9655L717.828 97.3861ZM806.326 208.504H773.982V212.504H806.326V208.504ZM775.573 209.292L703.011 114.088L699.829 116.513L772.392 211.716L775.573 209.292Z" fill="#FF0000"/>
</svg>
